<?xml version="1.0" encoding="UTF-8" standalone="no"?>
<!-- Created with Inkscape (http://www.inkscape.org/) -->

<svg
   xmlns:dc="http://purl.org/dc/elements/1.1/"
   xmlns:cc="http://creativecommons.org/ns#"
   xmlns:rdf="http://www.w3.org/1999/02/22-rdf-syntax-ns#"
   xmlns:svg="http://www.w3.org/2000/svg"
   xmlns="http://www.w3.org/2000/svg"
   xmlns:sodipodi="http://sodipodi.sourceforge.net/DTD/sodipodi-0.dtd"
   xmlns:inkscape="http://www.inkscape.org/namespaces/inkscape"
   width="64px"
   height="64px"
   id="svg2989"
   version="1.1"
   inkscape:version="0.48.4 r9939"
   sodipodi:docname="F4.svg">
  <defs
     id="defs2991" />
  <sodipodi:namedview
     id="base"
     pagecolor="#ffffff"
     bordercolor="#666666"
     borderopacity="1.0"
     inkscape:pageopacity="0.0"
     inkscape:pageshadow="2"
     inkscape:zoom="5.5"
     inkscape:cx="32"
     inkscape:cy="32"
     inkscape:current-layer="layer1"
     showgrid="true"
     inkscape:document-units="px"
     inkscape:grid-bbox="true"
     inkscape:window-width="1024"
     inkscape:window-height="578"
     inkscape:window-x="-8"
     inkscape:window-y="-8"
     inkscape:window-maximized="1" />
  <metadata
     id="metadata2994">
    <rdf:RDF>
      <cc:Work
         rdf:about="">
        <dc:format>image/svg+xml</dc:format>
        <dc:type
           rdf:resource="http://purl.org/dc/dcmitype/StillImage" />
        <dc:title />
      </cc:Work>
    </rdf:RDF>
  </metadata>
  <g
     id="layer1"
     inkscape:label="Layer 1"
     inkscape:groupmode="layer">
    <flowRoot
       xml:space="preserve"
       id="flowRoot2997"
       style="font-size:40px;font-style:normal;font-weight:normal;line-height:125%;letter-spacing:0px;word-spacing:0px;fill:#000000;fill-opacity:1;stroke:none;font-family:Sans"><flowRegion
         id="flowRegion2999"><rect
           id="rect3001"
           width="53.272728"
           height="40.909092"
           x="5.6363635"
           y="15.636364" /></flowRegion><flowPara
         id="flowPara3003"
         style="-inkscape-font-specification:Lucida Console;font-family:Lucida Console;font-weight:normal;font-style:normal;font-stretch:normal;font-variant:normal;font-size:40px;text-anchor:start;text-align:start;writing-mode:lr;line-height:125%">A()</flowPara></flowRoot>    <g
       style="font-size:90px;font-style:normal;font-variant:normal;font-weight:normal;font-stretch:normal;text-align:start;line-height:125%;letter-spacing:0px;word-spacing:0px;writing-mode:lr-tb;text-anchor:start;fill:#0000ff;fill-opacity:1;stroke:none;font-family:Vijaya;-inkscape-font-specification:Vijaya"
       id="text3005">
      <path
         d="M 51.926491,8.4098892 39.753639,50.157936 c -0.673854,2.255866 -1.010768,3.750005 -1.010742,4.482422 -2.6e-5,0.234379 0.102513,0.454105 0.307617,0.65918 0.205052,0.205081 0.41013,0.30762 0.615235,0.307617 0.322238,3e-6 0.688449,-0.146481 1.098632,-0.439453 0.820284,-0.585934 2.167939,-2.006831 4.042969,-4.262696 l 1.230469,0.747071 c -1.69925,2.343754 -3.42044,4.248049 -5.163574,5.71289 -1.743191,1.464844 -3.361842,2.197265 -4.855957,2.197266 -0.820335,-10e-7 -1.486839,-0.278321 -1.999512,-0.834961 -0.512716,-0.55664 -0.769064,-1.362303 -0.769043,-2.416992 -2.1e-5,-1.347653 0.351542,-3.149409 1.054687,-5.405274 l 1.362305,-4.394531 c -3.398457,5.302741 -6.503923,8.964847 -9.316406,10.986328 -1.933606,1.376953 -3.779307,2.065429 -5.537109,2.06543 -1.816413,-10e-7 -3.391118,-0.791016 -4.724122,-2.373047 -1.333009,-1.582028 -1.999513,-3.749995 -1.999511,-6.503906 -2e-6,-3.515614 1.120603,-7.26561 3.361816,-11.25 2.241204,-3.984352 5.20751,-7.221653 8.898926,-9.711914 2.900374,-2.021454 5.566387,-3.032195 7.998047,-3.032227 1.259743,3.2e-5 2.35105,0.263704 3.273926,0.791016 0.922825,0.527374 1.838352,1.391631 2.746582,2.592773 l 3.471679,-12.304687 c 0.234344,-0.878865 0.439422,-1.581989 0.615235,-2.109375 0.292936,-0.937456 0.439421,-1.713823 0.439453,-2.329102 -3.2e-5,-0.498001 -0.175813,-0.908157 -0.527344,-1.230469 -0.498078,-0.410109 -1.142609,-0.615187 -1.933594,-0.615234 -0.527373,4.7e-5 -1.420926,0.08794 -2.680664,0.263672 l 0,-1.318359 z M 38.786842,33.546608 c -2.6e-5,-1.523411 -0.432154,-2.73923 -1.296386,-3.647461 -0.864282,-0.908173 -1.970238,-1.362274 -3.317871,-1.362305 -2.9883,3.1e-5 -6.086442,2.446317 -9.294434,7.338868 -3.208017,4.892596 -4.812019,9.580091 -4.812012,14.0625 -7e-6,1.787116 0.388176,3.142095 1.164551,4.064941 0.776358,0.922855 1.706533,1.384281 2.790527,1.384277 2.460924,4e-6 5.537093,-2.651361 9.228516,-7.954101 3.691382,-5.302718 5.537083,-9.93162 5.537109,-13.886719 z"
         style="line-height:125%;fill:#0000ff;font-family:Vijaya;-inkscape-font-specification:Vijaya"
         id="path3039" />
    </g>
  </g>
</svg>
